<svg width="60" height="20" viewBox="0 0 60 20" fill="none" xmlns="http://www.w3.org/2000/svg">
<g clip-path="url(#clip0_2_2292)">
<path d="M8.59603 6.2247C8.55553 6.09874 8.4761 5.98888 8.36917 5.91094C8.26225 5.83301 8.13335 5.79102 8.00103 5.79102C7.86872 5.79102 7.73982 5.83301 7.63289 5.91094C7.52597 5.98888 7.44653 6.09874 7.40603 6.2247L6.05503 10.4327H1.62003C1.48568 10.4325 1.35484 10.4757 1.24693 10.5557C1.13902 10.6358 1.05977 10.7484 1.02094 10.8771C0.982105 11.0057 0.985753 11.1434 1.03134 11.2698C1.07693 11.3962 1.16203 11.5045 1.27403 11.5787L4.83403 13.9427L3.46803 17.9777C3.42592 18.1027 3.42441 18.2378 3.46372 18.3636C3.50303 18.4895 3.58115 18.5997 3.6869 18.6785C3.79265 18.7573 3.92061 18.8006 4.05248 18.8023C4.18434 18.8039 4.31334 18.7638 4.42103 18.6877L8.00003 16.1587L11.578 18.6867C11.6857 18.7628 11.8147 18.8029 11.9466 18.8013C12.0785 18.7996 12.2064 18.7563 12.3122 18.6775C12.4179 18.5987 12.496 18.4885 12.5353 18.3626C12.5747 18.2368 12.5732 18.1017 12.531 17.9767L11.165 13.9407L14.715 11.5767C14.8266 11.5023 14.9113 11.394 14.9566 11.2679C15.0018 11.1417 15.0054 11.0043 14.9666 10.8759C14.9278 10.7476 14.8488 10.6351 14.7412 10.5551C14.6336 10.4751 14.5031 10.4319 14.369 10.4317H9.95503L8.59603 6.2247Z" fill="black" stroke="#191919" stroke-width="1.25"/>
<path d="M8.59603 6.2247C8.55553 6.09874 8.4761 5.98888 8.36917 5.91094C8.26225 5.83301 8.13335 5.79102 8.00103 5.79102C7.86872 5.79102 7.73982 5.83301 7.63289 5.91094C7.52597 5.98888 7.44653 6.09874 7.40603 6.2247L6.05503 10.4327H1.62003C1.48568 10.4325 1.35484 10.4757 1.24693 10.5557C1.13902 10.6358 1.05977 10.7484 1.02094 10.8771C0.982105 11.0057 0.985753 11.1434 1.03134 11.2698C1.07693 11.3962 1.16203 11.5045 1.27403 11.5787L4.83403 13.9427L3.46803 17.9777C3.42592 18.1027 3.42441 18.2378 3.46372 18.3636C3.50303 18.4895 3.58115 18.5997 3.6869 18.6785C3.79265 18.7573 3.92061 18.8006 4.05248 18.8023C4.18434 18.8039 4.31334 18.7638 4.42103 18.6877L8.00003 16.1587L11.578 18.6867C11.6857 18.7628 11.8147 18.8029 11.9466 18.8013C12.0785 18.7996 12.2064 18.7563 12.3122 18.6775C12.4179 18.5987 12.496 18.4885 12.5353 18.3626C12.5747 18.2368 12.5732 18.1017 12.531 17.9767L11.165 13.9407L14.715 11.5767C14.8266 11.5023 14.9113 11.394 14.9566 11.2679C15.0018 11.1417 15.0054 11.0043 14.9666 10.8759C14.9278 10.7476 14.8488 10.6351 14.7412 10.5551C14.6336 10.4751 14.5031 10.4319 14.369 10.4317H9.95503L8.59603 6.2247Z" stroke="#191919" stroke-width="1.25"/>
</g>
<g clip-path="url(#clip1_2_2292)">
<path d="M20.596 6.2247C20.5555 6.09874 20.4761 5.98888 20.3692 5.91094C20.2622 5.83301 20.1333 5.79102 20.001 5.79102C19.8687 5.79102 19.7398 5.83301 19.6329 5.91094C19.526 5.98888 19.4465 6.09874 19.406 6.2247L18.055 10.4327H13.62C13.4857 10.4325 13.3548 10.4757 13.2469 10.5557C13.139 10.6358 13.0598 10.7484 13.0209 10.8771C12.9821 11.0057 12.9858 11.1434 13.0313 11.2698C13.0769 11.3962 13.162 11.5045 13.274 11.5787L16.834 13.9427L15.468 17.9777C15.4259 18.1027 15.4244 18.2378 15.4637 18.3636C15.503 18.4895 15.5812 18.5997 15.6869 18.6785C15.7927 18.7573 15.9206 18.8006 16.0525 18.8023C16.1843 18.8039 16.3133 18.7638 16.421 18.6877L20 16.1587L23.578 18.6867C23.6857 18.7628 23.8147 18.8029 23.9466 18.8013C24.0785 18.7996 24.2064 18.7563 24.3122 18.6775C24.4179 18.5987 24.496 18.4885 24.5353 18.3626C24.5747 18.2368 24.5732 18.1017 24.531 17.9767L23.165 13.9407L26.715 11.5767C26.8266 11.5023 26.9113 11.394 26.9566 11.2679C27.0018 11.1417 27.0054 11.0043 26.9666 10.8759C26.9278 10.7476 26.8488 10.6351 26.7412 10.5551C26.6336 10.4751 26.5031 10.4319 26.369 10.4317H21.955L20.596 6.2247Z" fill="black" stroke="#191919" stroke-width="1.25"/>
<path d="M20.596 6.2247C20.5555 6.09874 20.4761 5.98888 20.3692 5.91094C20.2622 5.83301 20.1333 5.79102 20.001 5.79102C19.8687 5.79102 19.7398 5.83301 19.6329 5.91094C19.526 5.98888 19.4465 6.09874 19.406 6.2247L18.055 10.4327H13.62C13.4857 10.4325 13.3548 10.4757 13.2469 10.5557C13.139 10.6358 13.0598 10.7484 13.0209 10.8771C12.9821 11.0057 12.9858 11.1434 13.0313 11.2698C13.0769 11.3962 13.162 11.5045 13.274 11.5787L16.834 13.9427L15.468 17.9777C15.4259 18.1027 15.4244 18.2378 15.4637 18.3636C15.503 18.4895 15.5812 18.5997 15.6869 18.6785C15.7927 18.7573 15.9206 18.8006 16.0525 18.8023C16.1843 18.8039 16.3133 18.7638 16.421 18.6877L20 16.1587L23.578 18.6867C23.6857 18.7628 23.8147 18.8029 23.9466 18.8013C24.0785 18.7996 24.2064 18.7563 24.3122 18.6775C24.4179 18.5987 24.496 18.4885 24.5353 18.3626C24.5747 18.2368 24.5732 18.1017 24.531 17.9767L23.165 13.9407L26.715 11.5767C26.8266 11.5023 26.9113 11.394 26.9566 11.2679C27.0018 11.1417 27.0054 11.0043 26.9666 10.8759C26.9278 10.7476 26.8488 10.6351 26.7412 10.5551C26.6336 10.4751 26.5031 10.4319 26.369 10.4317H21.955L20.596 6.2247Z" stroke="#191919" stroke-width="1.25"/>
</g>
<g clip-path="url(#clip2_2_2292)">
<path d="M32.596 6.2247C32.5555 6.09874 32.4761 5.98888 32.3692 5.91094C32.2622 5.83301 32.1333 5.79102 32.001 5.79102C31.8687 5.79102 31.7398 5.83301 31.6329 5.91094C31.526 5.98888 31.4465 6.09874 31.406 6.2247L30.055 10.4327H25.62C25.4857 10.4325 25.3548 10.4757 25.2469 10.5557C25.139 10.6358 25.0598 10.7484 25.0209 10.8771C24.9821 11.0057 24.9858 11.1434 25.0313 11.2698C25.0769 11.3962 25.162 11.5045 25.274 11.5787L28.834 13.9427L27.468 17.9777C27.4259 18.1027 27.4244 18.2378 27.4637 18.3636C27.503 18.4895 27.5812 18.5997 27.6869 18.6785C27.7927 18.7573 27.9206 18.8006 28.0525 18.8023C28.1843 18.8039 28.3133 18.7638 28.421 18.6877L32 16.1587L35.578 18.6867C35.6857 18.7628 35.8147 18.8029 35.9466 18.8013C36.0785 18.7996 36.2064 18.7563 36.3122 18.6775C36.4179 18.5987 36.496 18.4885 36.5353 18.3626C36.5747 18.2368 36.5732 18.1017 36.531 17.9767L35.165 13.9407L38.715 11.5767C38.8266 11.5023 38.9113 11.394 38.9566 11.2679C39.0018 11.1417 39.0054 11.0043 38.9666 10.8759C38.9278 10.7476 38.8488 10.6351 38.7412 10.5551C38.6336 10.4751 38.5031 10.4319 38.369 10.4317H33.955L32.596 6.2247Z" fill="black" stroke="#191919" stroke-width="1.25"/>
<path d="M32.596 6.2247C32.5555 6.09874 32.4761 5.98888 32.3692 5.91094C32.2622 5.83301 32.1333 5.79102 32.001 5.79102C31.8687 5.79102 31.7398 5.83301 31.6329 5.91094C31.526 5.98888 31.4465 6.09874 31.406 6.2247L30.055 10.4327H25.62C25.4857 10.4325 25.3548 10.4757 25.2469 10.5557C25.139 10.6358 25.0598 10.7484 25.0209 10.8771C24.9821 11.0057 24.9858 11.1434 25.0313 11.2698C25.0769 11.3962 25.162 11.5045 25.274 11.5787L28.834 13.9427L27.468 17.9777C27.4259 18.1027 27.4244 18.2378 27.4637 18.3636C27.503 18.4895 27.5812 18.5997 27.6869 18.6785C27.7927 18.7573 27.9206 18.8006 28.0525 18.8023C28.1843 18.8039 28.3133 18.7638 28.421 18.6877L32 16.1587L35.578 18.6867C35.6857 18.7628 35.8147 18.8029 35.9466 18.8013C36.0785 18.7996 36.2064 18.7563 36.3122 18.6775C36.4179 18.5987 36.496 18.4885 36.5353 18.3626C36.5747 18.2368 36.5732 18.1017 36.531 17.9767L35.165 13.9407L38.715 11.5767C38.8266 11.5023 38.9113 11.394 38.9566 11.2679C39.0018 11.1417 39.0054 11.0043 38.9666 10.8759C38.9278 10.7476 38.8488 10.6351 38.7412 10.5551C38.6336 10.4751 38.5031 10.4319 38.369 10.4317H33.955L32.596 6.2247Z" stroke="#191919" stroke-width="1.25"/>
</g>
<g clip-path="url(#clip3_2_2292)">
<path d="M44.596 6.2247C44.5555 6.09874 44.4761 5.98888 44.3692 5.91094C44.2622 5.83301 44.1333 5.79102 44.001 5.79102C43.8687 5.79102 43.7398 5.83301 43.6329 5.91094C43.526 5.98888 43.4465 6.09874 43.406 6.2247L42.055 10.4327H37.62C37.4857 10.4325 37.3548 10.4757 37.2469 10.5557C37.139 10.6358 37.0598 10.7484 37.0209 10.8771C36.9821 11.0057 36.9858 11.1434 37.0313 11.2698C37.0769 11.3962 37.162 11.5045 37.274 11.5787L40.834 13.9427L39.468 17.9777C39.4259 18.1027 39.4244 18.2378 39.4637 18.3636C39.503 18.4895 39.5812 18.5997 39.6869 18.6785C39.7927 18.7573 39.9206 18.8006 40.0525 18.8023C40.1843 18.8039 40.3133 18.7638 40.421 18.6877L44 16.1587L47.578 18.6867C47.6857 18.7628 47.8147 18.8029 47.9466 18.8013C48.0785 18.7996 48.2064 18.7563 48.3122 18.6775C48.4179 18.5987 48.496 18.4885 48.5353 18.3626C48.5747 18.2368 48.5732 18.1017 48.531 17.9767L47.165 13.9407L50.715 11.5767C50.8266 11.5023 50.9113 11.394 50.9566 11.2679C51.0018 11.1417 51.0054 11.0043 50.9666 10.8759C50.9278 10.7476 50.8488 10.6351 50.7412 10.5551C50.6336 10.4751 50.5031 10.4319 50.369 10.4317H45.955L44.596 6.2247Z" fill="black" stroke="#191919" stroke-width="1.25"/>
<path d="M44.596 6.2247C44.5555 6.09874 44.4761 5.98888 44.3692 5.91094C44.2622 5.83301 44.1333 5.79102 44.001 5.79102C43.8687 5.79102 43.7398 5.83301 43.6329 5.91094C43.526 5.98888 43.4465 6.09874 43.406 6.2247L42.055 10.4327H37.62C37.4857 10.4325 37.3548 10.4757 37.2469 10.5557C37.139 10.6358 37.0598 10.7484 37.0209 10.8771C36.9821 11.0057 36.9858 11.1434 37.0313 11.2698C37.0769 11.3962 37.162 11.5045 37.274 11.5787L40.834 13.9427L39.468 17.9777C39.4259 18.1027 39.4244 18.2378 39.4637 18.3636C39.503 18.4895 39.5812 18.5997 39.6869 18.6785C39.7927 18.7573 39.9206 18.8006 40.0525 18.8023C40.1843 18.8039 40.3133 18.7638 40.421 18.6877L44 16.1587L47.578 18.6867C47.6857 18.7628 47.8147 18.8029 47.9466 18.8013C48.0785 18.7996 48.2064 18.7563 48.3122 18.6775C48.4179 18.5987 48.496 18.4885 48.5353 18.3626C48.5747 18.2368 48.5732 18.1017 48.531 17.9767L47.165 13.9407L50.715 11.5767C50.8266 11.5023 50.9113 11.394 50.9566 11.2679C51.0018 11.1417 51.0054 11.0043 50.9666 10.8759C50.9278 10.7476 50.8488 10.6351 50.7412 10.5551C50.6336 10.4751 50.5031 10.4319 50.369 10.4317H45.955L44.596 6.2247Z" stroke="#191919" stroke-width="1.25"/>
</g>
<g clip-path="url(#clip4_2_2292)">
<path d="M56.596 6.2247C56.5555 6.09874 56.4761 5.98888 56.3692 5.91094C56.2622 5.83301 56.1333 5.79102 56.001 5.79102C55.8687 5.79102 55.7398 5.83301 55.6329 5.91094C55.526 5.98888 55.4465 6.09874 55.406 6.2247L54.055 10.4327H49.62C49.4857 10.4325 49.3548 10.4757 49.2469 10.5557C49.139 10.6358 49.0598 10.7484 49.0209 10.8771C48.9821 11.0057 48.9858 11.1434 49.0313 11.2698C49.0769 11.3962 49.162 11.5045 49.274 11.5787L52.834 13.9427L51.468 17.9777C51.4259 18.1027 51.4244 18.2378 51.4637 18.3636C51.503 18.4895 51.5812 18.5997 51.6869 18.6785C51.7927 18.7573 51.9206 18.8006 52.0525 18.8023C52.1843 18.8039 52.3133 18.7638 52.421 18.6877L56 16.1587L59.578 18.6867C59.6857 18.7628 59.8147 18.8029 59.9466 18.8013C60.0785 18.7996 60.2064 18.7563 60.3122 18.6775C60.4179 18.5987 60.496 18.4885 60.5353 18.3626C60.5747 18.2368 60.5732 18.1017 60.531 17.9767L59.165 13.9407L62.715 11.5767C62.8266 11.5023 62.9113 11.394 62.9566 11.2679C63.0018 11.1417 63.0054 11.0043 62.9666 10.8759C62.9278 10.7476 62.8488 10.6351 62.7412 10.5551C62.6336 10.4751 62.5031 10.4319 62.369 10.4317H57.955L56.596 6.2247Z" fill="black" stroke="#191919" stroke-width="1.25"/>
<path d="M56.596 6.2247C56.5555 6.09874 56.4761 5.98888 56.3692 5.91094C56.2622 5.83301 56.1333 5.79102 56.001 5.79102C55.8687 5.79102 55.7398 5.83301 55.6329 5.91094C55.526 5.98888 55.4465 6.09874 55.406 6.2247L54.055 10.4327H49.62C49.4857 10.4325 49.3548 10.4757 49.2469 10.5557C49.139 10.6358 49.0598 10.7484 49.0209 10.8771C48.9821 11.0057 48.9858 11.1434 49.0313 11.2698C49.0769 11.3962 49.162 11.5045 49.274 11.5787L52.834 13.9427L51.468 17.9777C51.4259 18.1027 51.4244 18.2378 51.4637 18.3636C51.503 18.4895 51.5812 18.5997 51.6869 18.6785C51.7927 18.7573 51.9206 18.8006 52.0525 18.8023C52.1843 18.8039 52.3133 18.7638 52.421 18.6877L56 16.1587L59.578 18.6867C59.6857 18.7628 59.8147 18.8029 59.9466 18.8013C60.0785 18.7996 60.2064 18.7563 60.3122 18.6775C60.4179 18.5987 60.496 18.4885 60.5353 18.3626C60.5747 18.2368 60.5732 18.1017 60.531 17.9767L59.165 13.9407L62.715 11.5767C62.8266 11.5023 62.9113 11.394 62.9566 11.2679C63.0018 11.1417 63.0054 11.0043 62.9666 10.8759C62.9278 10.7476 62.8488 10.6351 62.7412 10.5551C62.6336 10.4751 62.5031 10.4319 62.369 10.4317H57.955L56.596 6.2247Z" fill="black" stroke="#191919" stroke-width="1.25"/>
</g>
<defs>
<clipPath id="clip0_2_2292">
<rect width="12" height="12" fill="white" transform="translate(0 4.29688)"/>
</clipPath>
<clipPath id="clip1_2_2292">
<rect width="12" height="12" fill="white" transform="translate(12 4.29688)"/>
</clipPath>
<clipPath id="clip2_2_2292">
<rect width="12" height="12" fill="white" transform="translate(24 4.29688)"/>
</clipPath>
<clipPath id="clip3_2_2292">
<rect width="12" height="12" fill="white" transform="translate(36 4.29688)"/>
</clipPath>
<clipPath id="clip4_2_2292">
<rect width="12" height="12" fill="white" transform="translate(48 4.29688)"/>
</clipPath>
</defs>
</svg>
